<?xml version="1.0" encoding="utf-8"?>
<!-- Generator: Adobe Illustrator 20.0.0, SVG Export Plug-In . SVG Version: 6.00 Build 0)  -->
<svg version="1.1" id="Ebene_1" xmlns="http://www.w3.org/2000/svg" xmlns:xlink="http://www.w3.org/1999/xlink" x="0px" y="0px"
	 viewBox="0 0 2267.7 2267.7" style="enable-background:new 0 0 2267.7 2267.7;" xml:space="preserve">
<style type="text/css">
	.st0{fill:#88E3FF;}
	.st1{fill:#009900;}
	.st2{fill:#602F1A;stroke:#000000;stroke-width:39.5551;stroke-miterlimit:10;}
	.st3{fill:#14A000;stroke:#000000;stroke-width:39.5551;stroke-miterlimit:10;}
	.st4{fill:#FFFFFF;stroke:#000000;stroke-width:23.4926;stroke-miterlimit:10;}
	.st5{fill:#FF0000;stroke:#000000;stroke-width:23.4926;stroke-miterlimit:10;}
	.st6{fill:#F2CE75;}
	.st7{fill:#FEDE94;}
	.st8{fill:none;stroke:#000000;stroke-width:50.2217;stroke-miterlimit:10;}
</style>
<g>
	<path class="st0" d="M2114.2,2241.7H152.8c-69.6,0-126.5-56.9-126.5-126.5V153.7c0-69.6,56.9-126.5,126.5-126.5h1961.4
		c69.6,0,126.5,56.9,126.5,126.5v1961.4C2240.8,2184.7,2183.8,2241.7,2114.2,2241.7z"/>
	<path class="st1" d="M26.3,2076.9c425-76.2,930.1-120.4,1471.9-120.4c257.4,0,506.5,10,742.6,28.6l-35.8,217.9
		c-90.8,38.6-607.1,38.6-2118.6,38.6"/>
	<g>
		<path class="st2" d="M1106.4,2225.8c0,0-163.1,8.1-213.1-0.7c-70-12.4-282.7,27-471.5-4.4c-188.8-31.5,237.7-45,219.8-215.8
			c-18-170.8,71.9-350.6-31.5-436C506.7,1483.4,264.9,1283,264.9,1283l174.5,44.7c0,0,53.9,101.8,157.3,133.2
			c103.4,31.5-23.1-177.9-23.1-177.9l97.1-92.9c5.9-5.6,15.4,0.5,12.7,8.2c-16.2,46.7-32.4,138.1,12.1,271.6
			c67.4,202.3,131.8-184,115.3-233.6c-16.4-49.6,65,19.9,65,19.9s-63.4,263.1-45.4,263.1c18,0,336.6-239.6,343.6-310.8
			c7-71.2,98.8,0.1,98.8,0.1s-186.2,324.3-357,378.2s-22.5,395.6-22.5,395.6s67.4,143.8,121.4,148.3
			C1068.6,2135.2,1106.4,2225.8,1106.4,2225.8z"/>
		<g>
			<path class="st3" d="M10.9,421.9c6.2-2.7,12.6-5.2,19.2-7.7c0,0,0-355.1,364.1-211.3c0,0,256.2-283.2,507.9,0
				c0,0,418-229.2,512.4,278.7c0,0,418,143.8,247.2,427c0,0,85.4,509.7-454,268.3c0,0-296.7,190.2-516.9-23.3
				c0,0-202.3,316.8-503.4,74.1c0,0-81.7,6-162.8-19.2"/>
			<g>
				<polygon class="st4" points="246.9,495.9 273.1,495.9 265.2,569.4 				"/>
				<path class="st5" d="M362.9,638.9c0,48.6-49.2,83.2-97.7,83.2s-98.3-42-98.3-90.6c0-42.5,22.8-69.7,62.9-77.9
					c5.7-1.2,29.4,15.8,35.4,15.8c3.9,0,23.7-23,27.5-22.5c6.4,0.8,18.8,1.5,24.7,3.6C351.1,562.8,362.9,600.8,362.9,638.9z"/>
			</g>
			<g>
				<polygon class="st4" points="849,779.1 875.2,779.1 867.2,852.6 				"/>
				<path class="st5" d="M964.9,922.1c0,48.6-49.2,83.2-97.7,83.2c-48.6,0-98.3-42-98.3-90.6c0-42.5,22.8-69.7,62.9-77.9
					c5.7-1.2,29.4,15.8,35.4,15.8c3.9,0,23.7-23,27.5-22.5c6.4,0.8,18.8,1.5,24.7,3.6C953.1,846,964.9,884,964.9,922.1z"/>
			</g>
			<g>
				<polygon class="st4" points="1113.6,306.5 1139.8,306.5 1131.8,380 				"/>
				<path class="st5" d="M1229.5,449.5c0,48.6-49.2,83.2-97.7,83.2c-48.6,0-98.3-42-98.3-90.6c0-42.5,22.8-69.7,62.9-77.9
					c5.7-1.2,29.4,15.8,35.4,15.8c3.9,0,23.7-23,27.5-22.5c6.4,0.8,18.8,1.5,24.7,3.6C1217.8,373.3,1229.5,411.4,1229.5,449.5z"/>
			</g>
		</g>
	</g>
	<g>
		<g>
			<g>
				<polygon class="st4" points="2009.4,1934.8 1994.7,1956.5 1938.2,1908.8 				"/>
				<path class="st5" d="M1826,1951.2c-40.3-27.1-41.6-87.2-14.5-127.5c27.1-40.3,89.7-58.1,130.1-31c35.3,23.7,45.1,57.8,29.6,95.7
					c-2.2,5.4-29.5,15.5-32.9,20.6c-2.2,3.2,5.9,32.5,3.4,35.4c-4.2,4.8-11.7,14.8-16.8,18.4
					C1895.7,1983.9,1857.6,1972.4,1826,1951.2z"/>
			</g>
			<g>
				<g>
					<polygon class="st4" points="1528.8,1752.7 1551.1,1738.8 1583.2,1805.4 					"/>
					<path class="st5" d="M1702.9,1812.7c25.7,41.2,2.3,96.6-38.9,122.3c-41.2,25.7-105.7,16.3-131.4-24.9
						c-22.5-36.1-17.5-71.2,12.2-99.4c4.2-4,33.3-2.1,38.5-5.3c3.3-2.1,7.9-32.1,11.4-33.6c5.8-2.7,16.8-8.7,22.8-10
						C1652.6,1754.3,1682.7,1780.4,1702.9,1812.7z"/>
				</g>
				<g>
					<polygon class="st4" points="1821.5,1629.9 1845.5,1640.4 1808.6,1704.5 					"/>
					<path class="st5" d="M1870.1,1807.4c-19.6,44.5-78.5,56.4-123,36.8s-73.1-78.1-53.5-122.5c17.1-38.9,48.9-54.6,88.9-46
						c5.7,1.2,20.5,26.3,26.1,28.8c3.6,1.6,31-11.5,34.2-9.6c5.5,3.3,16.6,8.9,21.1,13.3C1890,1733,1885.4,1772.6,1870.1,1807.4z"/>
				</g>
			</g>
		</g>
		<g>
			<g>
				<g id="XMLID_5_">
					<g>
						<path class="st6" d="M1875.6,2155.7c0,11.4,9.2,20.6,20.6,20.6h28c-20.8,13.3-45.5,21.1-72,21.1h-219.4
							c-49.5,0-92.7-27-116.1-67.2h218.5c11.3,0,20.6-9.2,20.6-20.6s-9.2-20.6-20.6-20.6h-234.3c-1.8-8.7-2.7-17.6-2.7-26.8v-59.4
							h152.5c11.3,0,20.5-9.2,20.5-20.6c0-11.4-9.2-20.6-20.5-20.6h-152.5v-28.3h488.7v63.7h-199.9c-11.3,0-20.6,9.2-20.6,20.6
							s9.2,20.6,20.6,20.6h199.9v23.9c0,27.6-8.3,53.2-22.4,74.6c-2.6-1.2-5.4-1.8-8.4-1.8h-59.8
							C1884.7,2135,1875.6,2144.2,1875.6,2155.7z"/>
						<path class="st6" d="M2007.7,1851.9c8.8,3.5,17,11.7,17,21.8c0,10.1-8.2,18.3-18.2,18.3h-526.1c-10,0-18.2-8.2-18.2-18.3
							c0-10,8.2-18.2,19.4-21.8H2007.7z"/>
						<path d="M2065.8,1873.7c0,25.3-15.7,46.8-37.8,55.5v133c0,97.4-78.9,176.6-175.8,176.6h-219.4c-96.9,0-175.7-79.2-175.7-176.6
							v-133.8c-21.2-9.1-36.1-30.2-36.1-54.8c0-32.5,26-58.9,58.2-59.5V1743c0-128,103.7-232.2,231.1-232.2h59.2
							c127.4,0,231.1,104.1,231.1,232.2v71.2h5.9C2039.2,1814.2,2065.8,1840.8,2065.8,1873.7z M2024.7,1873.7c0-10-8.2-18.2-17-21.8
							h-526.2c-11.2,3.5-19.4,11.7-19.4,21.8c0,10.1,8.2,18.3,18.2,18.3h526.1C2016.5,1892,2024.7,1883.8,2024.7,1873.7z
							 M1986.8,2062.2v-23.9h-199.9c-11.3,0-20.6-9.2-20.6-20.6s9.2-20.6,20.6-20.6h199.9v-63.7h-488.7v28.3h152.5
							c11.3,0,20.5,9.2,20.5,20.6s-9.2,20.6-20.5,20.6h-152.5v59.4c0,9.2,1,18.1,2.7,26.8h234.3c11.3,0,20.6,9.2,20.6,20.6
							s-9.2,20.6-20.6,20.6h-218.5c23.4,40.2,66.6,67.2,116.1,67.2h219.4c26.5,0,51.2-7.8,72-21.1h-28c-11.4,0-20.6-9.2-20.6-20.6
							s9.2-20.6,20.6-20.6h59.8c3.1,0,5.9,0.6,8.4,1.8C1978.6,2115.4,1986.8,2089.8,1986.8,2062.2z M1959.5,1814.2V1743
							c0-105.2-85.2-190.9-190-190.9h-59.2c-104.8,0-190,85.6-190,190.9v71.2L1959.5,1814.2L1959.5,1814.2z"/>
					</g>
				</g>
				<path class="st7" d="M1583,1941.4v20.1h67.7c11.3,0,20.5,9.2,20.5,20.6s-9.2,20.6-20.5,20.6H1583v65.9c0,7,1,13.7,2.6,20.2
					h149.6c11.3,0,20.6,9.2,20.6,20.6s-9.2,20.6-20.6,20.6h-124.8c14.7,13.3,34.2,21.5,55.6,21.5H1876c1.8-9.6,10.1-16.8,20.2-16.8
					h59.8c1.9,0,3.7,0.3,5.4,0.8c1.8-0.9,3.7-1.9,5.4-2.9c12.6-20.6,20-44.8,20-70.7v-23.9h-200c-11.3,0-20.6-9.2-20.6-20.6
					s9.2-20.6,20.6-20.6h199.9v-63.7h-403C1583.3,1935.9,1583,1938.7,1583,1941.4z"/>
			</g>
		</g>
	</g>
	<path class="st8" d="M2114.2,2241.7H152.8c-69.6,0-126.5-56.9-126.5-126.5V153.7c0-69.6,56.9-126.5,126.5-126.5h1961.4
		c69.6,0,126.5,56.9,126.5,126.5v1961.4C2240.8,2184.7,2183.8,2241.7,2114.2,2241.7z"/>
</g>
</svg>
