<?xml version="1.0" encoding="utf-8"?>
<!-- Generator: Adobe Illustrator 20.0.0, SVG Export Plug-In . SVG Version: 6.00 Build 0)  -->
<svg version="1.1" id="Ebene_1" xmlns="http://www.w3.org/2000/svg" xmlns:xlink="http://www.w3.org/1999/xlink" x="0px" y="0px"
	 viewBox="0 0 2267.7 2267.7" style="enable-background:new 0 0 2267.7 2267.7;" xml:space="preserve">
<style type="text/css">
	.st0{fill:#88E3FF;}
	.st1{fill:#009900;}
	.st2{fill:#FFFFFF;stroke:#000000;stroke-width:92;stroke-miterlimit:10;}
	.st3{fill:#FF0000;stroke:#000000;stroke-width:92;stroke-miterlimit:10;}
	.st4{fill:#F2CE75;}
	.st5{fill:#FEDE94;}
	.st6{fill:none;stroke:#000000;stroke-width:50.2217;stroke-miterlimit:10;}
</style>
<g>
	<path class="st0" d="M2114.4,2241.7H153c-69.6,0-126.5-56.9-126.5-126.5V153.7C26.5,84.1,83.4,27.2,153,27.2h1961.4
		c69.6,0,126.5,56.9,126.5,126.5v1961.4C2240.9,2184.7,2184,2241.7,2114.4,2241.7z"/>
	<path class="st1" d="M26.3,2076.9c425-76.2,930.1-120.4,1471.9-120.4c257.4,0,506.5,10,742.6,28.6l-35.8,217.9
		c-90.8,38.6-607.1,38.6-2118.6,38.6"/>
	<g>
		<g>
			<g>
				<polygon class="st2" points="1881.8,1299.7 1840.7,1359.7 1681.6,1228.3 				"/>
				<path class="st3" d="M1366,1345.1c-113.4-74.8-117.1-240.6-40.8-351.8s252.5-160.4,365.9-85.6c99.3,65.4,127,159.5,83.2,263.8
					c-6.3,14.9-83.1,42.8-92.6,56.7c-6.1,8.9,16.6,89.6,9.5,97.5c-11.9,13.3-33,40.7-47.2,50.9
					C1562.2,1435.3,1454.9,1403.7,1366,1345.1z"/>
			</g>
			<g>
				<g>
					<polygon class="st2" points="530,797.5 592.6,759.3 682.9,943 					"/>
					<path class="st3" d="M1019.6,963c72.3,113.7,6.5,266.5-109.6,337.4s-297.3,45-369.6-68.7c-63.3-99.5-49.3-196.4,34.2-274.1
						c11.9-11.1,93.7-5.7,108.2-14.6c9.3-5.7,22.3-88.4,32-92.8c16.4-7.3,47.1-23.9,64.3-27.5C878.3,802,963,873.9,1019.6,963z"/>
				</g>
				<g>
					<polygon class="st2" points="1353.5,458.8 1421,487.9 1317.1,664.6 					"/>
					<path class="st3" d="M1490.1,948.6c-55.1,122.7-220.9,155.5-346,101.5c-125.1-54-205.6-215.3-150.5-338
						c48.2-107.3,137.7-150.7,250.2-126.8c16.1,3.4,57.7,72.6,73.3,79.4c10.1,4.3,87.1-31.8,96.2-26.4c15.5,9.2,46.7,24.7,59.4,36.5
						C1546,743.3,1533.2,852.4,1490.1,948.6z"/>
				</g>
			</g>
		</g>
		<g>
			<g>
				<g id="XMLID_5_">
					<g>
						<path class="st4" d="M1505.5,1909c0,31.5,25.8,56.9,57.9,56.9h78.9c-58.5,36.8-127.9,58.3-202.5,58.3H822.5
							c-139.2,0-260.8-74.4-326.6-185.2h614.7c31.9,0,57.9-25.5,57.9-56.9c0-31.5-26-56.9-57.9-56.9H451.4
							c-5-23.9-7.7-48.5-7.7-73.8v-163.7h429.2c31.9,0,57.6-25.5,57.6-56.9c0-31.5-25.8-56.9-57.6-56.9H443.7v-78h1374.7v175.7H1256
							c-31.9,0-57.9,25.5-57.9,56.9c0,31.5,26,56.9,57.9,56.9h562.5v66c0,76-23.3,146.7-63.1,205.8c-7.2-3.3-15.1-5.1-23.7-5.1
							h-168.4C1531.2,1852,1505.5,1877.5,1505.5,1909z"/>
						<path class="st4" d="M1877.2,1071.3c24.9,9.7,47.9,32.3,47.9,60c0,27.9-23,50.5-51.3,50.5h-1480c-28.3,0-51.3-22.6-51.3-50.5
							c0-27.7,23-50.3,54.5-60H1877.2z"/>
						<path d="M2040.6,1131.3c0,69.8-44.3,129.2-106.4,153.1v366.9c0,268.5-221.9,487-494.5,487H822.5
							c-272.5,0-494.2-218.5-494.2-487v-368.9c-59.7-25-101.5-83.3-101.5-151.1c0-89.5,73.2-162.4,163.6-164.2V770.8
							c0-353.2,291.8-640.3,650.2-640.3h166.6c358.4,0,650.2,287.1,650.2,640.3v196.3h16.5
							C1965.8,967.1,2040.6,1040.7,2040.6,1131.3z M1925.1,1131.3c0-27.7-23-50.3-47.9-60H397c-31.4,9.7-54.5,32.3-54.5,60
							c0,27.9,23,50.5,51.3,50.5h1480C1902.1,1181.8,1925.1,1159.2,1925.1,1131.3z M1818.5,1651.3v-66H1256
							c-31.9,0-57.9-25.5-57.9-56.9s26-56.9,57.9-56.9h562.5v-175.7H443.7v78h429.2c31.9,0,57.6,25.5,57.6,56.9
							c0,31.5-25.8,56.9-57.6,56.9H443.7v163.7c0,25.3,2.7,49.9,7.7,73.8h659.2c31.9,0,57.9,25.5,57.9,56.9
							c0,31.5-26,56.9-57.9,56.9H495.9c65.8,110.8,187.3,185.2,326.6,185.2h617.2c74.6,0,144-21.5,202.5-58.3h-78.9
							c-32.1,0-57.9-25.5-57.9-56.9s25.8-56.9,57.9-56.9h168.4c8.6,0,16.5,1.8,23.7,5.1C1795.2,1798,1818.5,1727.3,1818.5,1651.3z
							 M1741.6,967.1V770.8c0-290.2-239.8-526.4-534.5-526.4h-166.6c-294.7,0-534.5,236.2-534.5,526.4v196.3L1741.6,967.1
							L1741.6,967.1z"/>
					</g>
				</g>
				<path class="st5" d="M682.5,1318.2v55.5h190.4c31.9,0,57.6,25.5,57.6,56.9c0,31.5-25.8,56.9-57.6,56.9H682.5v181.9
					c0,19.2,2.7,37.8,7.2,55.6h420.9c31.9,0,57.9,25.5,57.9,56.9c0,31.5-26,56.9-57.9,56.9H759.5c41.4,36.7,96.2,59.3,156.4,59.3
					h590.6c5.1-26.3,28.4-46.2,56.8-46.2h168.4c5.4,0,10.3,0.9,15.2,2.2c5.2-2.6,10.3-5.2,15.3-8c35.5-56.9,56.3-123.5,56.3-195v-66
					H1256c-31.9,0-57.9-25.5-57.9-56.9c0-31.5,26-56.9,57.9-56.9h562.5v-175.7H684.6C683.3,1303,682.5,1310.5,682.5,1318.2z"/>
			</g>
		</g>
	</g>
	<path class="st6" d="M2114.2,2241.7H152.8c-69.6,0-126.5-56.9-126.5-126.5V153.7c0-69.6,56.9-126.5,126.5-126.5h1961.4
		c69.6,0,126.5,56.9,126.5,126.5v1961.4C2240.8,2184.7,2183.8,2241.7,2114.2,2241.7z"/>
</g>
</svg>
